<svg width="43" height="43" viewBox="0 0 43 43" fill="none" xmlns="http://www.w3.org/2000/svg">
<path d="M41.1254 13.125V1.875M41.1254 1.875H29.8754M41.1254 1.875L28.0004 15M39.2512 31.725V37.35C39.2533 37.8721 39.1463 38.389 38.9371 38.8675C38.7279 39.3459 38.4211 39.7754 38.0363 40.1285C37.6515 40.4815 37.1972 40.7502 36.7026 40.9175C36.2079 41.0848 35.6837 41.147 35.1637 41.1C29.394 40.473 23.8518 38.5015 18.9824 35.3437C14.4521 32.4649 10.6112 28.624 7.73241 24.0937C4.56362 19.2022 2.59161 13.6331 1.97616 7.83745C1.9293 7.31895 1.99092 6.79638 2.15709 6.303C2.32327 5.80962 2.59035 5.35625 2.94134 4.97174C3.29233 4.58724 3.71954 4.28003 4.19576 4.06968C4.67199 3.85933 5.18679 3.75044 5.70741 3.74995H11.3324C12.2424 3.741 13.1245 4.06323 13.8145 4.65658C14.5044 5.24993 14.9551 6.07392 15.0824 6.97495C15.3198 8.77508 15.7601 10.5426 16.3949 12.2437C16.6472 12.9148 16.7018 13.6442 16.5522 14.3454C16.4027 15.0465 16.0553 15.6902 15.5512 16.2L13.1699 18.5812C15.8391 23.2754 19.7258 27.162 24.4199 29.8312L26.8012 27.45C27.3109 26.9458 27.9546 26.5984 28.6558 26.4489C29.3569 26.2993 30.0863 26.3539 30.7574 26.6062C32.4585 27.241 34.226 27.6813 36.0262 27.9187C36.937 28.0472 37.7688 28.506 38.3634 29.2078C38.958 29.9095 39.274 30.8054 39.2512 31.725Z" stroke="#1A1A1A" stroke-width="2" stroke-linecap="round" stroke-linejoin="round"/>
</svg>
