<svg width="26" height="24" viewBox="0 0 26 24" fill="none" xmlns="http://www.w3.org/2000/svg">
<path d="M18.3869 8.31375C18.2771 8.04406 18.109 7.79917 17.8934 7.59486C17.6778 7.39055 17.4195 7.23134 17.1351 7.1275C16.7434 6.98991 16.3298 6.91718 15.9122 6.9125C15.2178 6.8825 15.0096 6.875 13.2504 6.875C11.4913 6.875 11.2831 6.8825 10.5886 6.9125C10.1706 6.91704 9.75652 6.98976 9.36448 7.1275C9.08018 7.23163 8.82203 7.39109 8.60665 7.59562C8.39127 7.80015 8.22344 8.0452 8.11397 8.315C7.96892 8.68649 7.89226 9.07887 7.88732 9.475C7.8557 10.1337 7.84779 10.3312 7.84779 12C7.84779 13.6687 7.8557 13.8662 7.88732 14.525C7.89211 14.9215 7.96877 15.3144 8.11397 15.6862C8.22374 15.9559 8.39184 16.2008 8.60745 16.4051C8.82306 16.6094 9.08139 16.7687 9.3658 16.8725C9.75742 17.0101 10.1711 17.0828 10.5886 17.0875C11.2831 17.1175 11.4913 17.1237 13.2504 17.1237C15.0096 17.1237 15.2178 17.1175 15.9122 17.0862C16.3302 17.0821 16.7443 17.0098 17.1364 16.8725C17.4207 16.7684 17.6788 16.6089 17.8942 16.4044C18.1096 16.1998 18.2774 15.9548 18.3869 15.685C18.5319 15.3135 18.6086 14.9211 18.6135 14.525C18.6452 13.8662 18.6518 13.6687 18.6518 12C18.6518 10.3312 18.6452 10.1337 18.6122 9.475C18.6079 9.07852 18.5316 8.68571 18.3869 8.31375ZM13.2504 15.21C12.5812 15.21 11.9269 15.0217 11.3704 14.669C10.814 14.3163 10.3802 13.815 10.1241 13.2284C9.868 12.6419 9.80099 11.9964 9.93155 11.3738C10.0621 10.7511 10.3844 10.1791 10.8577 9.73019C11.3309 9.28126 11.9339 8.97554 12.5903 8.85168C13.2467 8.72782 13.9271 8.79139 14.5454 9.03435C15.1637 9.2773 15.6922 9.68874 16.064 10.2166C16.4359 10.7445 16.6343 11.3651 16.6343 12C16.6343 12.8513 16.2778 13.6678 15.6432 14.2698C15.0086 14.8718 14.1479 15.21 13.2504 15.21ZM16.7674 9.41375C16.611 9.41375 16.4582 9.36976 16.3282 9.28735C16.1981 9.20494 16.0968 9.08781 16.037 8.95076C15.9771 8.81372 15.9615 8.66292 15.992 8.51743C16.0225 8.37194 16.0978 8.23831 16.2084 8.13342C16.3189 8.02853 16.4598 7.9571 16.6132 7.92816C16.7665 7.89922 16.9255 7.91407 17.07 7.97084C17.2144 8.0276 17.3379 8.12373 17.4248 8.24707C17.5117 8.37041 17.558 8.51541 17.558 8.66375C17.558 8.86266 17.4747 9.05343 17.3265 9.19408C17.1782 9.33473 16.9771 9.41375 16.7674 9.41375ZM15.4471 12C15.4471 12.4121 15.3182 12.815 15.0769 13.1577C14.8355 13.5003 14.4924 13.7674 14.091 13.9251C13.6897 14.0828 13.248 14.1241 12.8219 14.0437C12.3958 13.9633 12.0044 13.7648 11.6972 13.4734C11.39 13.182 11.1808 12.8107 11.096 12.4065C11.0112 12.0023 11.0547 11.5833 11.221 11.2026C11.3873 10.8218 11.6688 10.4964 12.03 10.2674C12.3913 10.0385 12.816 9.91625 13.2504 9.91625C13.833 9.91625 14.3917 10.1358 14.8037 10.5266C15.2156 10.9173 15.4471 11.4474 15.4471 12ZM13.2504 0C10.7485 0 8.30272 0.703787 6.22242 2.02236C4.14213 3.34094 2.52073 5.21508 1.56328 7.4078C0.605823 9.60051 0.355309 12.0133 0.843415 14.3411C1.33152 16.6689 2.53633 18.807 4.30547 20.4853C6.07462 22.1635 8.32865 23.3064 10.7825 23.7694C13.2364 24.2324 15.7799 23.9948 18.0914 23.0865C20.4029 22.1783 22.3786 20.6402 23.7686 18.6668C25.1586 16.6935 25.9005 14.3734 25.9005 12C25.9005 8.8174 24.5677 5.76515 22.1954 3.51472C19.823 1.26428 16.6054 0 13.2504 0ZM19.7995 14.5762C19.7883 15.0949 19.6845 15.608 19.4925 16.0937C19.3232 16.5088 19.0644 16.8858 18.7327 17.2005C18.4009 17.5152 18.0035 17.7607 17.566 17.9212C17.0543 18.1033 16.5139 18.2018 15.9676 18.2125C15.2639 18.2425 15.0399 18.25 13.2504 18.25C11.461 18.25 11.237 18.2425 10.5333 18.2125C9.98698 18.2018 9.44653 18.1033 8.93491 17.9212C8.49732 17.7607 8.09992 17.5152 7.76817 17.2005C7.43641 16.8858 7.17763 16.5088 7.0084 16.0937C6.81649 15.6084 6.71268 15.0957 6.70138 14.5775C6.66975 13.91 6.66185 13.6975 6.66185 12C6.66185 10.3025 6.66975 10.09 6.70138 9.4225C6.71226 8.90433 6.81563 8.39165 7.00709 7.90625C7.17631 7.4908 7.43522 7.1135 7.76722 6.79856C8.09921 6.48363 8.49695 6.23802 8.93491 6.0775C9.44661 5.89588 9.98706 5.79782 10.5333 5.7875C11.237 5.7575 11.461 5.75 13.2504 5.75C15.0399 5.75 15.2639 5.7575 15.9676 5.7875C16.5138 5.79782 17.0543 5.89588 17.566 6.0775C18.0037 6.23817 18.4012 6.48384 18.7329 6.79877C19.0647 7.1137 19.3234 7.49092 19.4925 7.90625C19.6844 8.39158 19.7882 8.90426 19.7995 9.4225C19.8311 10.09 19.839 10.3025 19.839 12C19.839 13.6975 19.8311 13.91 19.7995 14.5775V14.5762Z" fill="#159EEC"/>
</svg>
